<svg width="25" height="24" viewBox="0 0 25 24" fill="none" xmlns="http://www.w3.org/2000/svg">
<path d="M23.001 12.2332C23.001 11.3699 22.9296 10.7399 22.7748 10.0865H12.7153V13.9832H18.62C18.501 14.9515 17.8582 16.4099 16.4296 17.3898L16.4096 17.5203L19.5902 19.935L19.8106 19.9565C21.8343 18.1249 23.001 15.4298 23.001 12.2332Z" fill="#4285F4"/>
<path d="M12.7147 22.5C15.6075 22.5 18.0361 21.5666 19.8099 19.9566L16.429 17.3898C15.5242 18.0082 14.3099 18.4399 12.7147 18.4399C9.88142 18.4399 7.47669 16.6082 6.61947 14.0765L6.49382 14.087L3.18656 16.5954L3.14331 16.7132C4.90519 20.1432 8.52423 22.5 12.7147 22.5Z" fill="#34A853"/>
<path d="M6.6201 14.0766C6.39391 13.4233 6.26301 12.7232 6.26301 11.9999C6.26301 11.2765 6.39391 10.5766 6.6082 9.92325L6.6022 9.78411L3.25349 7.23547L3.14393 7.28655C2.41777 8.7099 2.0011 10.3083 2.0011 11.9999C2.0011 13.6916 2.41777 15.2899 3.14393 16.7132L6.6201 14.0766Z" fill="#FBBC05"/>
<path d="M12.7148 5.55997C14.7267 5.55997 16.0838 6.41163 16.8576 7.12335L19.8814 4.23C18.0243 2.53834 15.6076 1.5 12.7148 1.5C8.52426 1.5 4.9052 3.85665 3.14331 7.28662L6.60759 9.92332C7.47672 7.39166 9.88146 5.55997 12.7148 5.55997Z" fill="#EB4335"/>
</svg>
